<svg width="156" height="156" viewBox="0 0 156 156" fill="none" xmlns="http://www.w3.org/2000/svg">
<circle cx="78" cy="78" r="75" fill="#3D4F5D" stroke="white" stroke-width="6"/>
<path d="M42.148 119.004C38.836 119.004 35.8307 118.084 33.132 116.244C30.4333 114.465 28.2867 111.859 26.692 108.424C25.0973 104.989 24.3 100.88 24.3 96.096C24.3 91.3733 25.036 86.5893 26.508 81.744C27.98 76.8987 30.004 72.268 32.58 67.852C35.156 63.436 38.0693 59.5107 41.32 56.076C44.5707 52.6413 48.0053 49.912 51.624 47.888C55.304 45.864 58.9227 44.852 62.48 44.852C64.9333 44.852 66.896 45.3427 68.368 46.324C69.84 47.3053 70.8827 48.5933 71.496 50.188C72.1707 51.7827 72.508 53.5307 72.508 55.432C72.508 57.5787 72.14 59.6947 71.404 61.78C70.668 63.8653 69.656 65.5827 68.368 66.932C67.1413 68.2813 65.7613 68.956 64.228 68.956C63.676 68.956 63.124 68.8027 62.572 68.496C62.02 68.128 61.4987 67.484 61.008 66.564C61.928 65.9507 62.94 64.8773 64.044 63.344C65.2093 61.7493 66.1907 60.0013 66.988 58.1C67.8467 56.1373 68.276 54.3587 68.276 52.764C68.276 51.4147 67.8773 50.3107 67.08 49.452C66.2827 48.532 64.9027 48.072 62.94 48.072C60.2413 48.072 57.4507 49.1453 54.568 51.292C51.7467 53.3773 48.9867 56.1987 46.288 59.756C43.6507 63.252 41.2587 67.1773 39.112 71.532C36.9653 75.8253 35.2787 80.2413 34.052 84.78C32.8253 89.3187 32.212 93.612 32.212 97.66C32.212 103.241 33.3773 107.596 35.708 110.724C38.1 113.852 41.044 115.416 44.54 115.416C46.932 115.416 49.2013 114.557 51.348 112.84C53.4947 111.184 55.396 109.007 57.052 106.308C58.708 103.548 60.0267 100.573 61.008 97.384C61.9893 94.1947 62.6027 91.0973 62.848 88.092C60.824 87.6627 59.076 87.3867 57.604 87.264C56.132 87.08 54.6907 86.988 53.28 86.988C52.4213 86.988 51.532 87.0187 50.612 87.08C49.692 87.08 48.6493 87.1107 47.484 87.172C47.9747 85.2707 48.772 83.9213 49.876 83.124C50.98 82.2653 52.3907 81.836 54.108 81.836C55.8867 81.836 57.696 82.1427 59.536 82.756C61.4373 83.308 63.308 83.9213 65.148 84.596C66.988 85.2707 68.644 85.8227 70.116 86.252L69.38 89.104C68.276 92.2933 67.356 95.0227 66.62 97.292C65.884 99.5613 65.3013 101.555 64.872 103.272C64.504 104.928 64.2587 106.431 64.136 107.78C64.0133 109.068 63.952 110.325 63.952 111.552C63.952 112.779 63.9827 113.975 64.044 115.14C64.1053 116.367 64.1667 117.716 64.228 119.188C63.0013 118.82 61.9587 118.299 61.1 117.624C60.3027 116.949 59.72 116.152 59.352 115.232C59.0453 114.312 58.892 113.3 58.892 112.196C58.892 111.644 58.9227 111.092 58.984 110.54C59.0453 109.988 59.168 109.405 59.352 108.792C57.144 111.675 54.5987 114.097 51.716 116.06C48.8947 118.023 45.7053 119.004 42.148 119.004ZM88.5685 119.004C85.6245 118.759 83.7538 117.961 82.9565 116.612C82.1591 115.324 81.7605 113.668 81.7605 111.644C81.7605 109.436 82.1898 106.737 83.0485 103.548C83.9685 100.297 85.1031 96.8013 86.4525 93.06C87.8018 89.3187 89.1818 85.608 90.5925 81.928C89.9178 81.9893 89.0591 82.0813 88.0165 82.204C86.9738 82.2653 85.7778 82.388 84.4285 82.572C83.1405 82.6947 81.6991 82.8787 80.1045 83.124C80.2271 81.468 80.8405 80.18 81.9445 79.26C83.1098 78.2787 84.6125 77.5733 86.4525 77.144C88.2925 76.6533 90.3471 76.3773 92.6165 76.316C94.2725 71.716 95.9898 67.208 97.7685 62.792C99.5471 58.376 101.326 54.328 103.104 50.648C102.552 50.5867 102 50.556 101.448 50.556C100.896 50.4947 100.283 50.464 99.6085 50.464C95.7445 50.464 92.7391 50.8627 90.5925 51.66C88.5071 52.4573 87.0658 53.6533 86.2685 55.248C85.4711 56.8427 85.0725 58.8667 85.0725 61.32C85.0725 62.7307 85.1645 64.0187 85.3485 65.184C85.5938 66.3493 85.9618 67.6067 86.4525 68.956C84.1218 68.5267 82.4045 67.668 81.3005 66.38C80.2578 65.092 79.7365 63.4667 79.7365 61.504C79.7365 58.3147 80.8711 55.4933 83.1405 53.04C85.4711 50.5867 88.5685 48.6853 92.4325 47.336C96.3578 45.9253 100.712 45.22 105.496 45.22C108.747 45.22 111.936 45.4653 115.064 45.956C118.192 46.3853 121.167 46.6 123.988 46.6C125.399 46.6 126.687 46.508 127.852 46.324C129.018 46.14 130.275 45.864 131.624 45.496C129.171 48.3173 127.116 50.188 125.46 51.108C123.804 52.028 122.148 52.488 120.492 52.488C119.082 52.488 117.242 52.304 114.972 51.936C112.703 51.5067 110.158 51.2 107.336 51.016C106.539 52.9787 105.65 55.34 104.668 58.1C103.748 60.86 102.767 63.804 101.724 66.932C100.743 70.06 99.7311 73.2187 98.6885 76.408C101.816 76.592 104.699 76.868 107.336 77.236C110.035 77.604 112.642 77.8187 115.156 77.88C114.604 78.6773 113.991 79.3213 113.316 79.812C112.642 80.2413 111.691 80.5787 110.464 80.824C109.299 81.008 107.643 81.1613 105.496 81.284C103.411 81.3453 100.651 81.4067 97.2165 81.468C96.7871 82.94 96.2965 84.596 95.7445 86.436C95.1925 88.276 94.7018 89.9627 94.2725 91.496C93.9045 92.968 93.5978 94.0107 93.3525 94.624C91.8805 99.7147 90.7151 104.253 89.8565 108.24C89.0591 112.227 88.6298 115.815 88.5685 119.004Z" fill="white"/>
</svg>
