<svg width="992" height="992" viewBox="0 0 992 992" fill="none" xmlns="http://www.w3.org/2000/svg">
<rect x="3.5" y="3.5" width="985" height="985" rx="75.5" stroke="#AAAAAA" stroke-width="7"/>
<g filter="url(#filter0_d_23_47)">
<path d="M380.358 95C380.837 97.2175 381.308 99.4213 381.772 101.611C406.959 202.104 607.437 356.383 690.056 460.993C778.013 572.361 810.796 688.198 719.599 815.258C628.402 942.318 335.832 910.933 254.82 791.972C204.964 718.764 209.203 576.315 254.82 534.309C342.231 453.816 456.244 452.902 381.772 101.611C381.213 99.3807 380.741 97.1766 380.358 95Z" fill="#2E2E2E"/>
<path d="M380.358 95C457.666 452.894 342.776 453.315 254.82 534.309M380.358 95C398.001 195.231 605.603 354.061 690.056 460.993M380.358 95C380.837 97.2175 381.308 99.4213 381.772 101.611M380.358 95C380.741 97.1766 381.213 99.3807 381.772 101.611M254.82 534.309C209.203 576.315 204.964 718.764 254.82 791.972C335.832 910.933 628.402 942.318 719.599 815.258C810.796 688.198 778.013 572.361 690.056 460.993M254.82 534.309C342.231 453.816 456.244 452.902 381.772 101.611M690.056 460.993C607.437 356.383 406.959 202.104 381.772 101.611" stroke="#2F2F2F" stroke-width="7"/>
<path d="M412.692 802.929C365.912 788.849 251.728 667.371 360.055 571.441C433.809 506.126 545.319 399.895 451.76 268.612C362.913 143.94 627.568 486.337 662.524 642.472C697.48 798.607 522.186 835.885 412.692 802.929Z" fill="#5F5F5F" stroke="#696969" stroke-width="7"/>
<path d="M457.568 721.309C408.706 687.809 411.593 646.175 457.568 605.87C501.694 567.186 534.536 539.161 514.693 483.007C509.987 472.203 505.827 463.12 502.756 456.585C494.675 440.395 496.333 442.917 502.756 456.585C503.811 458.699 505.032 461.133 506.431 463.902C509.826 470.626 512.563 476.979 514.693 483.007C534.059 527.46 562.668 601.051 562.668 646.175C562.668 707.908 506.431 754.809 457.568 721.309Z" fill="#CDCDCD" fill-opacity="0.63"/>
<path d="M457.568 605.87C411.593 646.175 408.706 687.809 457.568 721.309C506.431 754.809 562.668 707.908 562.668 646.175C562.668 564.152 468.138 388.07 506.431 463.902C541.457 533.267 506.431 563.033 457.568 605.87Z" stroke="#D6D6D6" stroke-width="7"/>
<path d="M502.953 698.729C475.093 678.051 476.74 652.352 502.953 627.474C528.113 603.596 546.839 586.298 535.525 551.636C532.841 544.968 530.469 539.361 528.718 535.327C524.111 525.334 525.056 526.891 528.718 535.327C529.32 536.632 530.016 538.134 530.813 539.844C532.75 543.994 534.31 547.915 535.525 551.636C546.566 579.075 562.879 624.5 562.879 652.352C562.879 690.457 530.814 719.407 502.953 698.729Z" fill="#E6E6E6"/>
<path d="M502.953 627.474C476.74 652.352 475.093 678.051 502.953 698.729C530.814 719.407 562.879 690.457 562.879 652.352C562.879 601.724 508.98 493.036 530.813 539.844C550.785 582.66 530.813 601.033 502.953 627.474Z" stroke="#D6D6D6" stroke-width="7"/>
</g>
<defs>
<filter id="filter0_d_23_47" x="215.5" y="94.261" width="611" height="810.237" filterUnits="userSpaceOnUse" color-interpolation-filters="sRGB">
<feFlood flood-opacity="0" result="BackgroundImageFix"/>
<feColorMatrix in="SourceAlpha" type="matrix" values="0 0 0 0 0 0 0 0 0 0 0 0 0 0 0 0 0 0 127 0" result="hardAlpha"/>
<feOffset dx="49" dy="4"/>
<feComposite in2="hardAlpha" operator="out"/>
<feColorMatrix type="matrix" values="0 0 0 0 0 0 0 0 0 0 0 0 0 0 0 0 0 0 0.25 0"/>
<feBlend mode="normal" in2="BackgroundImageFix" result="effect1_dropShadow_23_47"/>
<feBlend mode="normal" in="SourceGraphic" in2="effect1_dropShadow_23_47" result="shape"/>
</filter>
</defs>
</svg>
