<svg width="992" height="992" viewBox="0 0 992 992" fill="none" xmlns="http://www.w3.org/2000/svg">
<rect x="3.5" y="3.5" width="985" height="985" rx="75.5" stroke="#AAAAAA" stroke-width="7"/>
<g filter="url(#filter0_d_23_48)">
<path d="M374.498 98C375.001 100.198 375.497 102.383 375.984 104.554C402.442 204.169 613.033 357.102 699.821 460.799C792.216 571.194 826.652 686.021 730.855 811.972C635.057 937.922 327.727 906.811 242.627 788.889C190.256 716.32 194.708 575.114 242.627 533.475C334.448 453.685 454.213 452.778 375.984 104.554C375.397 102.342 374.901 100.158 374.498 98Z" fill="#732911"/>
<path d="M374.498 98C455.707 452.77 335.021 453.187 242.627 533.475M374.498 98C393.032 197.356 611.107 354.8 699.821 460.799M374.498 98C375.001 100.198 375.497 102.383 375.984 104.554M374.498 98C374.901 100.158 375.397 102.342 375.984 104.554M242.627 533.475C194.708 575.114 190.256 716.32 242.627 788.889C327.727 906.811 635.057 937.922 730.855 811.972C826.652 686.021 792.216 571.194 699.821 460.799M242.627 533.475C334.448 453.685 454.213 452.778 375.984 104.554M699.821 460.799C613.033 357.102 402.442 204.169 375.984 104.554" stroke="#8B361B" stroke-width="7"/>
<path d="M408.463 799.75C359.324 785.793 239.38 665.375 353.171 570.282C430.646 505.538 547.782 400.234 449.503 270.097C356.173 146.513 634.181 485.921 670.9 640.693C707.62 795.465 523.482 832.418 408.463 799.75Z" fill="#BA6B0E" stroke="#B97A00" stroke-width="7"/>
<path d="M455.604 718.843C404.277 685.635 407.31 644.364 455.604 604.411C501.956 566.065 536.455 538.284 515.611 482.62C510.667 471.911 506.297 462.907 503.071 456.429C494.583 440.381 496.324 442.881 503.071 456.429C504.18 458.525 505.463 460.937 506.932 463.682C510.498 470.348 513.374 476.645 515.611 482.62C535.953 526.686 566.006 599.634 566.006 644.364C566.006 705.558 506.932 752.05 455.604 718.843Z" fill="#ECC600" fill-opacity="0.63"/>
<path d="M455.604 604.411C407.31 644.364 404.277 685.635 455.604 718.843C506.932 752.05 566.006 705.558 566.006 644.364C566.006 563.057 466.707 388.512 506.932 463.682C543.726 532.442 506.932 561.948 455.604 604.411Z" stroke="#ECC600" stroke-width="7"/>
<path d="M503.279 696.46C474.013 675.962 475.743 650.488 503.279 625.826C529.708 602.157 549.378 585.01 537.494 550.651C534.675 544.04 532.183 538.483 530.344 534.484C525.504 524.578 526.497 526.121 530.344 534.484C530.976 535.778 531.707 537.267 532.545 538.961C534.578 543.076 536.218 546.962 537.494 550.651C549.092 577.85 566.228 622.878 566.228 650.488C566.228 688.26 532.545 716.957 503.279 696.46Z" fill="#FFD600"/>
<path d="M503.279 625.826C475.743 650.488 474.013 675.962 503.279 696.46C532.545 716.957 566.228 688.26 566.228 650.488C566.228 600.301 509.61 492.562 532.545 538.961C553.524 581.403 532.545 599.616 503.279 625.826Z" stroke="#ECC600" stroke-width="7"/>
</g>
<defs>
<filter id="filter0_d_23_48" x="201.5" y="97.219" width="639" height="803.281" filterUnits="userSpaceOnUse" color-interpolation-filters="sRGB">
<feFlood flood-opacity="0" result="BackgroundImageFix"/>
<feColorMatrix in="SourceAlpha" type="matrix" values="0 0 0 0 0 0 0 0 0 0 0 0 0 0 0 0 0 0 127 0" result="hardAlpha"/>
<feOffset dx="49" dy="4"/>
<feComposite in2="hardAlpha" operator="out"/>
<feColorMatrix type="matrix" values="0 0 0 0 0 0 0 0 0 0 0 0 0 0 0 0 0 0 0.25 0"/>
<feBlend mode="normal" in2="BackgroundImageFix" result="effect1_dropShadow_23_48"/>
<feBlend mode="normal" in="SourceGraphic" in2="effect1_dropShadow_23_48" result="shape"/>
</filter>
</defs>
</svg>
